# xmcd
#
# Track frame offsets: 
#        150
#        7976
#        21223
#        34681
#        50919
#        65219
#        75784
#        87089
#        96013
#        106330
#        116566
#        128369
#        137646
#        151338
#        163370
#        171847
#        180849
#        193736
#        204391
#        213575
#        227485
#
# Disc length: 3168 seconds
#
# Revision: 0
# Processed by: cddbd v1.5.2PL0 Copyright (c) Steve Scherf et al.
# Submitted via: ExactAudioCopyFreeDBPlugin 1.0
#
DISCID=0d0c5e15
DTITLE=Gloria Edwards - The Soul Queen of Texas
DYEAR=1999
DGENRE=Soul
TTITLE0=Money (That's What I Want) 
TTITLE1=I Don't Need Nobody (To Help Me Keep up With My Man) 
TTITLE2=Settled for Less 
TTITLE3=Blues, Pt. 2 
TTITLE4=Oh Me Oh My (I'm a Fool for You Baby) 
TTITLE5=Real Love 
TTITLE6=Don't Mess With My Man
TTITLE7=Lonely Girl 
TTITLE8=My Love Keeps Getting Stronger 
TTITLE9=You Ain't Enough Woman to Take My Man 
TTITLE10=I Can't Take Another Heartache 
TTITLE11=Just Enough Woman 
TTITLE12=Anything You Want 
TTITLE13=Something You Couldn't Write About 
TTITLE14=Our Love's Not for Three 
TTITLE15=Come on Over 
TTITLE16=Pushover 
TTITLE17=Tell You About a Feeling 
TTITLE18=Really Got It Bad for My Baby 
TTITLE19=Blues, Pt. 2 (alternate take) 
TTITLE20=Real Love (alternate take)
EXTD=
EXTT0=
EXTT1=
EXTT2=
EXTT3=
EXTT4=
EXTT5=
EXTT6=
EXTT7=
EXTT8=
EXTT9=
EXTT10=
EXTT11=
EXTT12=
EXTT13=
EXTT14=
EXTT15=
EXTT16=
EXTT17=
EXTT18=
EXTT19=
EXTT20=
PLAYORDER=
